<svg width="512" height="512" viewBox="0 0 512 512" xmlns="http://www.w3.org/2000/svg">
  <!-- Background grid -->
  <rect width="512" height="512" fill="#f0f0f0"/>
  <g stroke="#cccccc" stroke-width="2">
    <!-- Vertical grid lines -->
    <line x1="128" y1="0" x2="128" y2="512"/>
    <line x1="256" y1="0" x2="256" y2="512"/>
    <line x1="384" y1="0" x2="384" y2="512"/>
    
    <!-- Horizontal grid lines -->
    <line x1="0" y1="128" x2="512" y2="128"/>
    <line x1="0" y1="256" x2="512" y2="256"/>
    <line x1="0" y1="384" x2="512" y2="384"/>
  </g>
  
  <!-- Mine in the center -->
  <g transform="translate(256, 256)">
    <!-- Mine body -->
    <circle cx="0" cy="0" r="70" fill="#333333"/>
    
    <!-- Mine spikes -->
    <line x1="0" y1="-100" x2="0" y2="100" stroke="#333333" stroke-width="12"/>
    <line x1="-100" y1="0" x2="100" y2="0" stroke="#333333" stroke-width="12"/>
    <line x1="-70" y1="-70" x2="70" y2="70" stroke="#333333" stroke-width="12"/>
    <line x1="-70" y1="70" x2="70" y2="-70" stroke="#333333" stroke-width="12"/>
    
    <!-- Mine shine -->
    <circle cx="-20" cy="-20" r="15" fill="#ffffff" opacity="0.3"/>
  </g>
  
  <!-- Flag indicator -->
  <g transform="translate(128, 128)">
    <polygon points="0,-30 40,-10 0,10" fill="#e74c3c"/>
    <line x1="0" y1="-30" x2="0" y2="40" stroke="#333333" stroke-width="6"/>
  </g>
</svg>
